# xmcd
#
# Track frame offsets:
# 150
# 13145
# 32322
# 46372
# 63876
# 75030
# 85168
# 108270
# 124497
# 136995
# 146982
# 155388
# 169879
# 179651
# 207114
# 215726
#
# Disc length: 3524 seconds
#
#
# Revision: 0
# Processed by: cddbd v1.5.1PL2 Copyright (c) Steve Scherf et al.
# Submitted via: FreeRIP 2.92 
#
DISCID=db0dc210
DTITLE=Eulogy - the Sinking of the Navigator
DYEAR=2002
DGENRE=Experimental Punk
TTITLE0=9-04
TTITLE1=90 Ton Haulback
TTITLE2=Sublimation
TTITLE3=I Like Birds
TTITLE4=Ana'l Haq
TTITLE5=Glass Bead Game
TTITLE6=Unseen Hands
TTITLE7=All About Me
TTITLE8=Screens
TTITLE9=Blindman
TTITLE10=Tower
TTITLE11=Red Light
TTITLE12=Simple Machine
TTITLE13=No Moon To Rise
TTITLE14=Rememberance
TTITLE15=the Sinking of the Navigator
EXTD=ripped/spread by cleve
EXTT0=
EXTT1=
EXTT2=
EXTT3=
EXTT4=
EXTT5=
EXTT6=
EXTT7=
EXTT8=
EXTT9=
EXTT10=
EXTT11=
EXTT12=
EXTT13=
EXTT14=
EXTT15=
PLAYORDER=
